<?xml version="1.0" encoding="UTF-8"?>
<svg id="Layer_1" data-name="Layer 1" xmlns="http://www.w3.org/2000/svg" xmlns:xlink="http://www.w3.org/1999/xlink" viewBox="0 0 146.89 135.12">
  <defs>
    <style>
      .cls-1 {
        clip-path: url(#clippath);
      }

      .cls-2 {
        fill: none;
        stroke-width: 0px;
      }

      .cls-3 {
        stroke-width: 1.21px;
      }

      .cls-3, .cls-4, .cls-5, .cls-6, .cls-7 {
        fill: #fff;
        stroke: #231f20;
        stroke-miterlimit: 10;
      }

      .cls-4 {
        stroke-width: 1.2px;
      }

      .cls-5 {
        stroke-width: 4.04px;
      }

      .cls-6, .cls-7 {
        stroke-width: 4.85px;
      }

      .cls-7 {
        stroke-linecap: round;
      }
    </style>
    <clipPath id="clippath">
      <rect class="cls-2" x="9.03" y="9.82" width="126.55" height="110.38"/>
    </clipPath>
  </defs>
  <g class="cls-1">
    <g>
      <g>
        <line class="cls-6" x1="33.09" y1="27.42" x2="111.67" y2="106.28"/>
        <line class="cls-7" x1="30.28" y1="43.05" x2="30.28" y2="105.3"/>
        <line class="cls-7" x1="43.28" y1="80.38" x2="43.28" y2="108.4"/>
        <line class="cls-7" x1="55.97" y1="70" x2="55.97" y2="104.19"/>
        <line class="cls-7" x1="89.78" y1="30.92" x2="89.78" y2="65.12"/>
        <line class="cls-7" x1="102.42" y1="26.34" x2="102.42" y2="53.16"/>
        <line class="cls-7" x1="115.38" y1="30.92" x2="115.38" y2="90.89"/>
        <line class="cls-7" x1="97.18" y1="109.96" x2="30.28" y2="43.05"/>
        <line class="cls-7" x1="115.38" y1="90.89" x2="49.92" y2="25.43"/>
        <circle class="cls-5" cx="30.28" cy="24.88" r="4.38"/>
        <circle class="cls-5" cx="89.78" cy="24.88" r="4.38"/>
        <circle class="cls-5" cx="115.38" cy="24.88" r="4.38"/>
        <circle class="cls-5" cx="102.42" cy="59.39" r="4.38"/>
        <circle class="cls-5" cx="43.28" cy="75.26" r="4.38"/>
        <circle class="cls-5" cx="30.28" cy="110.32" r="4.38"/>
        <circle class="cls-5" cx="55.97" cy="110.27" r="4.38"/>
        <circle class="cls-5" cx="115.38" cy="109.98" r="4.38"/>
      </g>
      <g>
        <path class="cls-3" d="M23.15,128.56c0-.2.08-.38.23-.52.15-.15.33-.22.55-.22h.77v11.51h-1.58c-.16,0-.29-.06-.39-.19l-7.33-9.44v3.86c0,.2-.08.38-.23.52-.15.15-.33.22-.55.22h-.77v-6.47h1.57c.16,0,.29.06.39.19l7.34,9.44v-8.89Z"/>
        <path class="cls-4" d="M13.84,139.75h.86s.65-.13.7-1.33v-5.74h-1.55v7.06Z"/>
        <g>
          <path class="cls-3" d="M40.52,128.51c0,.2-.08.38-.23.52-.15.15-.33.22-.55.22h-10.05c-.11,0-.2-.04-.27-.11-.08-.08-.11-.17-.11-.27v-1.05h11.22v.69ZM29.3,133.22c0-.11.03-.2.1-.27.07-.07.16-.1.27-.1h9.8v.69c0,.2-.08.38-.23.52-.15.15-.33.22-.55.22h-9.39v-1.07ZM40.7,139.32h-11.39v-1.07c0-.11.03-.2.1-.27.07-.07.16-.1.27-.1h10.25c.22,0,.4.07.55.22.15.15.23.32.23.52v.69Z"/>
          <path class="cls-3" d="M55.53,127.81c.22,0,.4.07.54.22.15.15.22.32.22.52v.69h-10.05c-.22,0-.4-.07-.55-.22-.15-.15-.23-.32-.23-.52v-.69h10.07ZM50.88,139.32c-.22,0-.4-.07-.55-.22-.15-.15-.23-.32-.23-.52v-7.38h.77c.22,0,.4.07.55.22.15.15.23.33.23.54v7.36h-.77Z"/>
          <path class="cls-3" d="M71.44,128.51c0,.2-.08.38-.23.52-.15.15-.33.22-.55.22h-10.44v-.69c0-.2.08-.38.23-.52.15-.15.33-.22.55-.22h10.44v.69ZM61.77,139c0,.09-.04.16-.1.23-.07.06-.15.1-.23.1h-1.21v-6.47h10.17v.69c0,.2-.08.38-.23.52-.15.15-.33.22-.55.22h-7.84v4.71Z"/>
          <path class="cls-3" d="M86.93,133.58c0,.79-.16,1.53-.48,2.23-.32.7-.75,1.31-1.29,1.83-.54.52-1.18.93-1.9,1.23-.73.3-1.5.45-2.33.45s-1.61-.15-2.34-.45c-.73-.3-1.37-.71-1.91-1.23-.54-.52-.97-1.13-1.29-1.83-.32-.7-.48-1.44-.48-2.23s.16-1.54.48-2.24c.32-.7.75-1.31,1.29-1.83.54-.52,1.18-.93,1.91-1.23.73-.3,1.51-.45,2.34-.45s1.61.15,2.33.45c.73.3,1.36.71,1.9,1.23.54.52.97,1.13,1.29,1.83.32.7.48,1.45.48,2.24ZM80.93,129.25c-.62,0-1.21.11-1.76.34-.55.23-1.03.54-1.44.93-.41.39-.74.85-.98,1.37-.24.52-.36,1.08-.36,1.69s.12,1.15.36,1.67c.24.52.56.98.98,1.37.41.39.9.7,1.44.93.55.23,1.14.34,1.76.34s1.21-.11,1.76-.34,1.03-.54,1.44-.93c.41-.39.73-.85.97-1.37.24-.52.36-1.08.36-1.67s-.12-1.16-.36-1.69c-.24-.52-.56-.98-.97-1.37-.41-.39-.89-.7-1.44-.93s-1.14-.34-1.76-.34Z"/>
          <path class="cls-3" d="M97.57,134.22c.48.56.89,1.03,1.21,1.42.32.39.6.72.83,1,.23.28.43.52.6.71.17.19.33.39.48.58.16.19.33.4.51.61.18.22.4.47.66.77h-1.44c-.19,0-.37-.04-.52-.11l-.03.03c-.06-.08-.11-.12-.13-.15-.02-.02-.07-.08-.15-.16-.08-.09-.2-.24-.39-.45-.18-.22-.47-.55-.85-1-.38-.45-.89-1.05-1.53-1.81-.64-.75-1.46-1.72-2.46-2.89h3.24c.26,0,.5-.05.73-.15.23-.1.43-.22.61-.38.17-.16.31-.34.41-.56.1-.22.15-.45.15-.69s-.05-.48-.15-.69c-.1-.22-.24-.4-.41-.56-.17-.16-.37-.28-.61-.37-.23-.09-.48-.14-.73-.14h-7.02c-.3,0-.55-.1-.76-.31-.2-.2-.31-.45-.31-.73v-.42h8c.48-.01.94.07,1.36.23.42.17.79.4,1.11.69.32.29.57.63.75,1.02.18.39.27.82.27,1.27s-.09.86-.27,1.25c-.18.39-.43.74-.73,1.03-.31.3-.67.53-1.09.69-.42.17-.87.24-1.36.23Z"/>
          <path class="cls-3" d="M111.24,129.25c-.62,0-1.21.11-1.76.34s-1.03.54-1.44.93c-.41.39-.74.85-.98,1.37-.24.52-.36,1.08-.36,1.69s.12,1.15.36,1.67c.24.52.56.98.98,1.37.41.39.9.7,1.44.93s1.14.34,1.76.34h4.42c.22,0,.4.07.55.22.15.15.23.32.23.52v.69h-5.5c-.8-.04-1.54-.22-2.24-.54-.69-.32-1.3-.73-1.82-1.25-.52-.52-.92-1.11-1.22-1.79-.3-.68-.44-1.4-.44-2.16s.15-1.5.44-2.18c.3-.68.7-1.27,1.22-1.79.52-.52,1.12-.93,1.82-1.25.69-.32,1.44-.5,2.24-.54h5.5v.69c0,.2-.08.38-.23.52-.15.15-.33.22-.55.22h-4.42Z"/>
          <path class="cls-3" d="M132.38,128.51c0,.2-.08.38-.23.52-.15.15-.33.22-.55.22h-10.05c-.11,0-.2-.04-.27-.11-.08-.08-.11-.17-.11-.27v-1.05h11.22v.69ZM121.16,133.22c0-.11.03-.2.1-.27s.16-.1.27-.1h9.8v.69c0,.2-.08.38-.23.52-.15.15-.33.22-.55.22h-9.39v-1.07ZM132.56,139.32h-11.39v-1.07c0-.11.03-.2.1-.27.07-.07.16-.1.27-.1h10.25c.22,0,.4.07.55.22.15.15.23.32.23.52v.69Z"/>
        </g>
      </g>
    </g>
  </g>
</svg>