<svg xmlns="http://www.w3.org/2000/svg" viewBox="0 0 2000 2000" id="digital-wallet"><path fill="#4a53e2" d="M1468.57,1847.85h-799.15c-35.09,0-63.85-29.39-64.95-66.38l-42.68-1431.35c-1.15-38.68,28.26-70.69,64.95-70.69h782.34c34.78,0,63.4,28.89,64.92,65.54l59.49,1431.35c1.62,38.99-27.91,71.54-64.92,71.54Z"></path><path fill="#e5e5ff" d="M1482.76,1801h-772.17c-27.3,0-49.66-22.35-50.54-50.5l-42.95-1380.91c-.92-29.45,21.98-53.84,50.54-53.84h756.92c27.07,0,49.34,22,50.52,49.9l58.19,1380.91c1.25,29.67-21.73,54.44-50.52,54.44Z"></path><rect width="44.27" height="176.46" x="563.57" y="542.35" fill="#1b136a" rx="15.99" ry="15.99" transform="rotate(-1.57 585.197 630.32)"></rect><path fill="#1b136a" d="M584.56,724.89h12.29c8.83,0,15.99,7.17,15.99,15.99v144.48c0,8.83-7.17,15.99-15.99,15.99h-12.29c-8.83,0-15.99-7.17-15.99-15.99v-144.48c0-8.83,7.17-15.99,15.99-15.99Z" transform="rotate(-1.57 590.366 812.52)"></path><circle cx="1058.63" cy="330.69" r="38.87" fill="#4a53e2"></circle><path fill="#e5e5ff" d="M584.26 611.51l-1.22-22.47c-.38-6.93-.65-4.49-1.45-8.08-.97-4.41-6.83-2.86-7.28.99-.11.94-.67 1.88-.72 2.96-.06 1.28-.02 1.25.44 11.23 1.52 33.12 1.09 37.61 3.17 47.17 1.03 4.73 7.35 3.08 7.82-1.06 1.15-10.12-.21-20.59-.76-30.74zM587.64 780.95c0-1.92-1.68-3.76-3.67-3.67-1.99.09-3.66 1.61-3.67 3.67-.08 17.1-.25 19.48.4 22.01.83 3.23 5.71 3.23 6.54 0 .65-2.52.48-4.01.4-22.01z"></path><polygon fill="#b4b2fa" points="1505.51 1103.12 874.02 1103.12 874.02 731.24 1490.47 731.24 1505.51 1103.12"></polygon><path fill="#1b136a" d="M861,730.74c-56.93,0-99.64,52.57-87.34,108.68,8.8,40.17,44.53,70.25,87.34,70.25h637.71l-8.28-178.92h-629.43Z"></path><path fill="#ff6a00" d="M1698.7,367.42c-37.95,34.67-96.57,95.9-140.51,186.29-77.96,160.4-39.54,268.4-115.74,434.17-23.16,50.38-65.75,125.35-148.21,204.7-146.65-71.88-293.3-143.76-439.95-215.64,85.21-95.05,129.62-181.89,154.03-240.68,61.66-148.49,44.55-235.59,111.71-380.68,44.62-96.39,101.39-164.27,138.72-203.8,146.65,71.88,293.3,143.76,439.95,215.64Z"></path><path fill="#fa0" d="M1401.24,985.33c-28.39,57.32-67.38,111.52-116.11,161.4l-371.8-184.13c53-64.85,97.1-135.81,129.65-213.34,64.11-152.63,47.36-239.28,112.65-378.85,29.03-62.05,67.38-120.22,114.15-173.02l366.5,181.5c-44.95,47.56-81.86,100.25-110.04,157.15-85.31,173.13-42.78,283.22-125.01,449.28Z"></path><circle cx="1266.42" cy="673.7" r="166.95" fill="#ff6a00"></circle><path fill="#fa0" d="M1287.59,597.78c-23.95,2.79-42.54,19.17-50.12,42.7-28.31-7.75-39.7-10.87-63.13-16.94,4.16-11.04,9.51-21.86,12.2-33.7,1.34-5.89-5.26-8.75-9.77-6.48-13.62,6.83-23.52,19.03-29.54,33.37-8.21-2.13-14.56-3.93-22.12,1.51-1.96,1.41-3.14,4.15-2.21,6.52,3.55,9.06,9.68,10.8,18.36,13.76-2.99,20.9,1.09,42.91,12.74,58.46,25.15,33.58,76.5,32.18,96.59-5.5,2.47-4.62,4.24-9.96,5.82-15.53,23.68,7.52,47.43,14.91,71.24,22.13-8.13,20.95-32.41,34.89-32.09,56.43.04,3.01,2.23,5.96,4.88,7.23,26.45,12.65,53.73-25.51,62.9-52.99,6.98,2.06,13.97,4.09,20.96,6.11,25.85,11.56,33.91-22.54,12.71-28.98-9.42-2.86-18.88-5.67-28.33-8.46.62-49.59-38.09-84.64-81.08-79.63ZM1214.43,688.38c-20.51,12.11-40.27-8.24-44.51-26.96-1.07-4.71-1.39-9.21-1.21-13.57,18.18,6.03,20.03,6.73,60.76,19.58-3.22,8.79-7.59,16.56-15.04,20.95ZM1325.08,644.78c3.9,6.75,6.11,14.26,6.91,21.96-22.3-6.39-44.65-12.62-67-18.72,2.66-5.98,6.15-11.27,11.26-15.14,15.71-11.9,39.54-4.18,48.84,11.91Z"></path><path fill="#ff6a00" d="M1910.44,812.79c-49.63,13.39-129.82,40.87-210.34,101.01-142.89,106.72-158.33,220.31-302.12,332.6-43.7,34.13-115.96,81.18-225.63,113.83-97.29-131.18-194.59-262.35-291.88-393.53,119.33-45.33,198.65-102.1,247.31-143.13,122.94-103.62,147.72-188.86,273.98-286.93,83.88-65.15,165.48-99.4,216.79-117.39,97.29,131.18,194.59,262.35,291.88,393.53Z"></path><path fill="#fa0" d="M1361.51,1225.5c-51.53,37.9-111.05,68.15-177.24,90.1l-245.8-334.25c76.85-33.28,148.6-76.09,213.11-130.03,127.02-106.18,151.91-190.85,273.98-284.87,54.27-41.8,115.05-75.87,180.84-101.32l242.3,329.48c-61.77,21.62-118.74,51.49-169.9,89.11-155.26,114.65-168.01,231.99-317.29,341.77Z"></path><circle cx="1385.81" cy="886.48" r="166.95" fill="#ff6a00"></circle><path fill="#fa0" d="M1439.47,828.75c-22.55-8.51-46.6-2.5-64.13,14.93-21.59-19.88-30.28-27.88-48.31-44.03,8.76-7.9,18.49-15.06,26.3-24.34,3.89-4.62-.65-10.18-5.71-10.24-15.23-.18-29.63,6.11-41.56,16.09-6.32-5.66-11.13-10.18-20.34-8.81-2.39.35-4.69,2.24-4.96,4.77-1,9.68,3.65,14.04,10,20.65-12.25,17.2-18.73,38.63-15.52,57.79,6.93,41.38,53.2,63.7,88.34,39.45,4.31-2.98,8.34-6.9,12.3-11.13,17.59,17.55,35.3,35.02,53.13,52.36-16.84,14.88-44.81,16.12-54.41,35.4-1.34,2.7-.75,6.32,1.02,8.66,17.69,23.38,59.45,2,80.2-18.21,5.26,5.03,10.53,10.05,15.82,15.05,17.66,22.13,40.47-4.46,24.59-19.92-7.06-6.87-14.17-13.7-21.28-20.52,23.31-43.77,5.01-92.68-35.49-107.97ZM1332.89,875.65c-23.78,1.34-31.99-25.81-27.17-44.38,1.21-4.67,3-8.82,5.16-12.61,13.39,13.71,14.71,15.17,44.99,45.29-6.9,6.33-14.35,11.22-22.98,11.71ZM1451.2,887.71c.37,7.78-1.11,15.47-3.94,22.68-16.88-15.91-33.88-31.7-50.93-47.38,5.11-4.09,10.63-7.19,16.95-8.29,19.42-3.36,37.05,14.44,37.92,33Z"></path><path fill="#4a53e2" d="M857.51,909.67c-41.1,0-75.41-30.08-83.85-70.25v570.31c0,83.4,64.91,151,144.97,151h749.66q0-651.02-.17-651.06h-810.6Z"></path><rect width="120.2" height="651.06" x="1608.19" y="909.67" fill="#4a53e2" rx="30.67" ry="30.67"></rect><path fill="#b4b2fa" d="M1566.46,1503.87c-4.42,0-8-3.58-8-8s3.58-8,8-8h56.35c4.42,0,8,3.58,8,8s-3.58,8-8,8q0-10.67-.02,0h-56.33ZM1510.32,1503.87h-56.15c-4.42,0-8-3.58-8-8s3.58-8,8-8h56.15c4.42,0,8,3.58,8,8s-3.58,8-8,8ZM1398.02,1503.87h-56.15c-4.42,0-8-3.58-8-8s3.58-8,8-8h56.15c4.42,0,8,3.58,8,8s-3.58,8-8,8ZM1285.72,1503.87h-56.14c-4.42,0-8-3.58-8-8s3.58-8,8-8h56.14c4.42,0,8,3.58,8,8s-3.58,8-8,8ZM1173.43,1503.87h-56.15c-4.42,0-8-3.58-8-8s3.58-8,8-8h56.15c4.42,0,8,3.58,8,8s-3.58,8-8,8ZM1061.13,1503.87h-56.15c-4.42,0-8-3.58-8-8s3.58-8,8-8h56.15c4.42,0,8,3.58,8,8s-3.58,8-8,8ZM948.84,1503.87c-43.5,0-47.48.83-58.32-2.57-4.21-1.33-6.56-5.82-5.23-10.03,1.33-4.22,5.84-6.55,10.03-5.23,7.74,2.44,8.93,1.84,53.52,1.84,4.42,0,8,3.58,8,8s-3.58,8-8,8ZM1666.91,1474.48c-5.66,0-9.61-5.81-7.37-11.11,2.07-4.93,3.13-10.16,3.13-15.56v-36.97c0-4.42,3.58-8,8-8s8,3.58,8,8v36.97c0,7.54-1.48,14.87-4.39,21.77-1.29,3.06-4.25,4.9-7.38,4.9ZM859.52,1460.5c-4.07,0-7.56-3.1-7.96-7.23-.36-3.79-.26-1.13-.26-56.91,0-4.42,3.58-8,8-8s8,3.58,8,8c0,55.35-.08,52.63.19,55.38.45,4.67-3.22,8.77-7.97,8.77ZM1670.67,1362.69c-4.42,0-8-3.58-8-8v-56.15c0-4.42,3.58-8,8-8s8,3.58,8,8v56.15c0,4.42-3.58,8-8,8ZM859.3,1348.21c-4.42,0-8-3.58-8-8v-56.15c0-4.42,3.58-8,8-8s8,3.58,8,8v56.15c0,4.42-3.58,8-8,8ZM1670.67,1250.39c-4.42,0-8-3.58-8-8v-56.15c0-4.42,3.58-8,8-8s8,3.58,8,8v56.15c0,4.42-3.58,8-8,8ZM859.3,1235.91c-4.42,0-8-3.58-8-8v-56.15c0-4.42,3.58-8,8-8s8,3.58,8,8v56.15c0,4.42-3.58,8-8,8ZM1670.67,1138.09c-4.42,0-8-3.58-8-8v-56.15c0-4.42,3.58-8,8-8s8,3.58,8,8v56.15c0,4.42-3.58,8-8,8ZM859.3,1123.62c-4.42,0-8-3.58-8-8v-56.15c0-4.42,3.58-8,8-8s8,3.58,8,8v56.15c0,4.42-3.58,8-8,8ZM1670.43,1025.8c-4.07,0-7.55-3.08-7.95-7.21-1.58-16-12.53-29.44-27.89-34.24-4.21-1.32-6.57-5.8-5.25-10.02s5.8-6.56,10.02-5.25c21.5,6.72,36.83,25.54,39.04,47.94.46,4.7-3.23,8.79-7.97,8.79ZM863.1,1011.84c-5.66,0-9.62-5.82-7.36-11.13,8.79-20.71,29.01-34.13,51.51-34.18,3.22,0,8.01,2.5,8.02,7.98,0,4.42-3.57,8.01-7.98,8.02-16.08.04-30.53,9.62-36.82,24.43-1.29,3.05-4.25,4.88-7.37,4.88ZM1581.04,982.53h-56.14c-4.42,0-8-3.58-8-8s3.58-8,8-8h56.14c4.42,0,8,3.58,8,8s-3.58,8-8,8ZM1468.75,982.53h-56.15c-4.42,0-8-3.58-8-8s3.58-8,8-8h56.15c4.42,0,8,3.58,8,8s-3.58,8-8,8ZM1356.45,982.53h-56.15c-4.42,0-8-3.58-8-8s3.58-8,8-8h56.15c4.42,0,8,3.58,8,8s-3.58,8-8,8ZM1244.15,982.53h-56.15c-4.42,0-8-3.58-8-8s3.58-8,8-8h56.15c4.42,0,8,3.58,8,8s-3.58,8-8,8ZM1131.86,982.53h-56.15c-4.42,0-8-3.58-8-8s3.58-8,8-8h56.15c4.42,0,8,3.58,8,8s-3.58,8-8,8ZM1019.56,982.53h-56.15c-4.42,0-8-3.58-8-8s3.58-8,8-8h56.15c4.42,0,8,3.58,8,8s-3.58,8-8,8Z"></path><path fill="#b4b2fa" d="M1734.35,1337.56h-124.59c-53.95,0-97.69-43.74-97.69-97.69v-9.33c0-53.95,43.74-97.69,97.69-97.69h116.13c17.43,0,31.57,14.13,31.57,31.57v150.05c0,12.76-10.34,23.1-23.1,23.1Z"></path><circle cx="1617.05" cy="1231.04" r="64.27" fill="#e5e5ff"></circle><path fill="#b4b2fa" d="M1061.13 1125.29h-201.83c-4.42 0-8-3.58-8-8s3.58-8 8-8h201.83c7.09 0 13.89-2.62 19.14-7.38l39.05-35.36c8.2-7.43 18.82-11.52 29.88-11.52h103.39c4.42 0 8 3.58 8 8s-3.58 8-8 8h-103.39c-7.09 0-13.89 2.62-19.14 7.38l-39.05 35.36c-8.2 7.43-18.82 11.52-29.88 11.52zM1252.59 1415.36h-103.39c-11.07 0-21.68-4.09-29.88-11.52l-39.05-35.36c-5.25-4.76-12.05-7.38-19.14-7.38h-201.83c-4.42 0-8-3.58-8-8s3.58-8 8-8h201.83c11.06 0 21.68 4.09 29.88 11.52l39.05 35.36c5.25 4.76 12.05 7.38 19.14 7.38h103.39c4.42 0 8 3.58 8 8s-3.58 8-8 8zM1022.2 1249.25h-162.9c-4.42 0-8-3.58-8-8s3.58-8 8-8h162.9c4.42 0 8 3.58 8 8s-3.58 8-8 8z"></path><circle cx="1251.83" cy="1065.74" r="30.86" fill="#b4b2fa"></circle><circle cx="1251.83" cy="1407.36" r="30.86" fill="#b4b2fa"></circle><circle cx="1033.13" cy="1241.25" r="30.86" fill="#b4b2fa"></circle><ellipse cx="266.33" cy="791.39" fill="#ff6a00" rx="183.75" ry="221.13" transform="rotate(-13.01 266.434 791.615)"></ellipse><ellipse cx="305.37" cy="782.37" fill="#fa0" rx="183.75" ry="221.13" transform="rotate(-13.01 305.485 782.608)"></ellipse><path fill="#ff6a00" d="M241.64 933.49c-19.26-19.79-37.27-40.76-49.8-65.57-12.62-24.98-19.54-52.84-21.51-80.72-.39-5.48-8.55-6.13-8.75-.37-1.91 57.04 25.56 121.79 74.42 153.53 4.25 2.76 9.2-3.21 5.63-6.87zM323.9 974.62c.64-1.4.82-3.38-.12-4.73-1.49-2.15-.89-1.64-5.47-4.77-1.75-1.19-2.18-1.26-15.44-7.13-2.68-1.18-7.37.67-8.35 4.39-.45 1.69-.43 3.61.5 5.16 1.98 2.73.34 1.62 13.28 7.35 3.76 1.66 3.29 1.47 7.15 2.39 3.67.88 6.87.77 8.44-2.66zM459.54 826.67c5.76-43.91-12.07-99.31-32.93-137-7.28-13.16-16.35-29.07-27.86-38.95-3.93-3.37-10.4.45-7.7 5.57 3.57 6.77 8.78 12.74 12.91 19.22 36.07 56.53 39.85 91.83 47.15 151.94.62 5.1 7.85 3.64 8.43-.78zM191.92 688.75l11.5-24.01c.97-2.05 1.4-4.04.29-6.19-.8-1.57-2.48-3.24-4.39-3.14-4.15.22-5.25 1.63-6.77 4.52-14.37 27.41-14.32 25.41-12.23 30.62.87 2.17 3.96 3.31 6.1 2.75 2.63-.68 4.34-2.13 5.5-4.54z"></path><path fill="#1b136a" d="M105.14 735.51c3.92-.95 8.02-1.93 11.63-3.7 3.09-1.51 1.91-6.6-1.53-6.6-4.03 0-8.15.91-12.08 1.78-3.99.88-8.19 1.53-11.95 3.13-1.6.68-2.53 2.97-2.08 4.6.46 1.65 2.02 3.33 3.89 3.23 4.08-.22 8.14-1.47 12.11-2.43zM109.51 770.62c1.26-.31 2.48-.82 3.7-1.24 4.31-1.5 2.86-7.02-1.5-6.5-3.98.47-1.6.02-7.67 1.33-1.97.43-3.64.81-6.04 1.84-.73.31-1.38.93-2.02 1.42-1.59 1.23-.88 4.29 1.09 4.7 2.47.5 1.75.45 4.17.23 2.04-.18 3.9-.7 8.27-1.77zM133.23 873.77c.8-.32 1.43-.78 2.12-1.29.91-.67 3.43-1.79 2.49-4.26-.67-1.78-2.38-1.99-4.24-1.59-2.72.37-.67-.32-6.51 1.75-2.68.95-3.24 1.2-5.85 2.61-3.82 2.06-3.15 5.71-.21 6.13 3.32.48 8.65-1.95 12.2-3.35zM198.25 960.41c4.36-1.5 3.03-7.22-1.54-6.66-2.99.37-6.57 1.01-9.39 2.08-1.84.69-2.4 1.14-3.32 2-1.46 1.37-.88 3.89 1.04 4.49.66.21 1.32.4 2.03.41 3.59.06 7.79-1.15 11.18-2.32zM136.35 650.94c7.65-2.81 5.93-2.07 8.06-3.39 3.49-2.16 1.95-7.46-2.6-6.88-2.74.35-.6-.2-7.63 2.19-1.57.53-4.31 1.61-6.08 2.76-1.13.73-1.41 1.2-2.13 2.15-1.1 1.46-.11 3.9 1.61 4.33.31.08.61.17.92.23 2.09.44 5.88-.67 7.86-1.4z"></path><path fill="#1b136a" d="M169.22 589.24c-13.07 8.58-29.68 25.06-40.55 38.23-51.6 62.53-65.02 143.28-42.44 215.45 1.66 5.32 3.05 11.06 6.49 15.49.33.43.9.44 1.36.22 1.41-.03 1.29-1.3 1.26-2.28.02-.43-.3-.99-.77-1.14-.04-.02-.08-.01-.12-.03-.95-5.22-3.79-10.21-7.69-26.49-18.42-76.81 3.73-158.69 62.03-215.72 7.36-7.2 15.39-13.47 23.26-20.07 2.02-1.7-.62-5.11-2.83-3.66zM268.19 1008.66c-10.44-3.03-16.16-1.73-37.34-8.63-36.49-11.88-69.14-35.12-92.73-65.39-13.52-17.34-16.99-27.17-22.68-36.76-.8-1.36-3.09-.48-2.6 1.09 4.23 13.41 21.12 41.43 45.39 63.4 25.43 23.02 56.2 38.92 87.86 46.06 6.98 1.58 14.56 3.41 21.74 2.88 1.48-.11 1.88-2.21.36-2.65zM306.08 1004.49c-1.39-.61-2.35-.28-3.67.22-5.67 2.13-6.81 2.43-8.61 3.36-.86.45-1.42 1.76-.39 3.04 1.04 1.29 3.06.2 10.13-2.29 1.16-.41 2.56-.83 3.14-2.02.36-.74.28-1.92-.6-2.3zM486.3 722.83c-25.17-83.95-94.79-143.37-176.22-157.36-5.88-1.01-11.89-2.06-17.87-2-1.31.01-1.67 2.05-.32 2.34 16.26 3.5 31.4 3.83 60.47 15.64 62.77 25.5 107.49 75.07 127.71 135.4 8.92 26.62 10.71 45.75 12.06 71.44.11 2.08 3.1 2.07 3.23 0 1.29-21.91-2.78-44.52-9.06-65.47zM478.48 858.49c-1.77 3.84-2.43 8.02-3.32 12.12-.89 4.11-1.8 8.21-2.58 12.35-.5 2.67 3.43 3.84 4.13 1.14 1.05-4.07 1.96-8.16 2.89-12.26.93-4.09 2.16-8.23 2.18-12.45 0-1.66-2.54-2.55-3.3-.89z"></path><path fill="#ff6a00" d="M390.29,790.56c-9.29-13.81-23.36-23.58-39.74-26.67-6.69-1.26-14.01-.73-21.44.05-5.3-19.4-10.33-39.49-16.53-59.02,12.44,1.49,17.98,8.6,28.01,9.65,3.6.38,8.5-1.52,8.79-5.84,1.68-24.59-25-36.3-49-36.71-3.26-7.47-6.85-14.73-10.88-21.69-4.83-8.35-17.23-2.95-16.9,5.76.27,6.97.97,13.97,1.96,20.97-31.68,15.67-45.87,56.25-29.47,87.83,7.95,15.31,21.61,27.06,37.93,32.58,8.14,2.76,16.41,2.76,24.65,2.07,17.25,60.39,15.85,55.06,17.46,61.84-13.1-.71-26.19-6.86-39.55-10.11-19.25-4.69-31.11,21.3-16.95,33.92,19.49,17.38,44.77,20.6,68.09,14.6,2.56,4.9,5.72,9.32,9.83,12.92,6.68,5.86,15.81,1.8,18.1-6.04,1.85-6.33,1.82-12.93.78-19.59,31.65-20.71,50.05-59.12,24.87-96.53ZM282.4,714.84c4.39,16.63,9.7,33.16,14.77,49.39-22.48-5.88-29.68-33.18-14.77-49.39ZM346.82,799.3c23.91,7.21,21.75,36.03,7.43,50.99l-15.42-52.56c2.69.28,5.35.77,7.99,1.57Z"></path><ellipse cx="339.61" cy="1605.71" fill="#ff6a00" rx="145.06" ry="174.56" transform="rotate(-36.37 339.685 1605.824)"></ellipse><ellipse cx="365.08" cy="1586.95" fill="#fa0" rx="145.06" ry="174.56" transform="rotate(-36.37 365.143 1587.053)"></ellipse><path fill="#ff6a00" d="M366.19 1716.41c-20.16-8.32-39.77-17.87-56.61-31.93-16.96-14.15-30.7-32.18-40.85-51.77-2-3.85-8.12-1.77-6.45 2.47 16.47 41.94 56.65 80.26 101.99 87.97 3.94.67 5.66-5.21 1.93-6.75zM438.68 1720.47c.03-1.21-.46-2.7-1.56-3.39-1.75-1.09-1.16-.91-5.46-1.74-1.64-.32-1.98-.23-13.42-.33-2.32-.02-5.13 2.79-4.68 5.79.41 2.75 1.84 3.5 3.15 4.28 1.15.49.58.38 10.75.47 3.25.03 2.84.03 5.93-.51 2.93-.51 5.22-1.6 5.29-4.57zM490.68 1570.8c-9.57-33.62-39.83-68.2-66.74-88.98-9.4-7.26-20.95-15.95-32.38-19.51-3.9-1.21-7.4 3.59-3.84 6.45 4.71 3.79 10.35 6.49 15.37 9.89 43.83 29.68 57.62 54.08 81.73 95.36 2.05 3.5 6.83.18 5.86-3.21zM253.56 1554.61l.82-21c.06-1.79-.25-3.36-1.73-4.58-1.07-.89-2.81-1.57-4.16-.9-2.94 1.46-3.3 2.83-3.49 5.39-1.87 24.78-2.37 22.95.72 26.02 1.31 1.3 3.9 1.16 5.28.08 1.69-1.32 2.48-2.9 2.56-5.01z"></path><path fill="#1b136a" d="M205.3 1615.66c2.54-1.91 5.2-3.91 7.27-6.33 1.76-2.06-.68-5.38-3.17-4.31-2.92 1.26-5.62 3.21-8.2 5.07-2.61 1.88-5.45 3.67-7.68 6.01-.95.99-.9 2.95-.06 3.99.85 1.05 2.51 1.78 3.83 1.12 2.89-1.43 5.44-3.61 8.01-5.55zM219.46 1639.74c.81-.62 1.54-1.37 2.29-2.06 2.65-2.44-.12-5.98-3.12-4.24-3.01 1.74-6.72 4.25-8.94 6.58-.43.45-.71 1.11-1.02 1.66-.77 1.39.7 3.39 2.26 3.06 1.95-.41 1.41-.22 3.09-1.14 1.42-.77 2.61-1.73 5.44-3.87zM268.94 1707.06c.55-.55 1.16-1.67 1.77-2.58.61-.92.64-2.06-.16-2.88-1.04-1.08-2.34-.7-3.57.17-1.86 1.12-.59-.02-4.17 3.31-1.64 1.53-1.97 1.88-3.43 3.73-2.12 2.69-.5 5.12 1.77 4.51 2.56-.69 5.66-4.12 7.79-6.25zM343.18 1749.5c2.69-2.45-.06-6.18-3.2-4.34-2.63 1.54-6.72 4.14-7.93 6.93-.63 1.45.58 3.1 2.16 2.93 3.07-.33 6.69-3.44 8.97-5.52zM201.45 1544.6c2.81-2.67 7.26-6.02 4.57-8.81-1.07-1.11-2.55-1.09-3.82-.34-.46.27-.97.52-1.39.85-.44.34-5.46 4.74-7 7.03-.59.89-.65 1.31-.87 2.23-.34 1.4 1.14 2.86 2.52 2.64.73-.12 1.82-.21 3.68-1.65.8-.62 1.58-1.24 2.31-1.94z"></path><path fill="#1b136a" d="M205.96 1489.6c-6.79 10.31-13.67 27.45-17.42 40.4-17.82 61.47-2.28 124.19 36.68 169.42 2.87 3.33 5.67 7.06 9.55 9.19.38.21.79.04 1.05-.27 1.01-.46.53-1.34.2-2.05-.13-.32-.52-.62-.91-.58-.03 0-.06.02-.09.02-2.32-3.48-5.94-6.21-13.87-16.79-37.39-49.9-46.96-116.17-22.56-175.75 3.08-7.52 6.94-14.58 10.57-21.82.93-1.86-2.05-3.51-3.19-1.77zM408.96 1762.58c-8.51 1.07-12.26 3.8-29.77 5.43-30.16 2.81-61.1-3.81-87.67-18.37-15.22-8.34-20.82-14.38-27.94-19.55-1.01-.73-2.39.62-1.54 1.61 7.26 8.4 28.27 23.42 52.74 31.74 25.64 8.72 52.91 10.61 78.09 5.88 5.55-1.04 11.62-2.09 16.66-4.72 1.04-.54.67-2.19-.57-2.03zM435.12 1747.7c-1.2 0-1.79.54-2.59 1.31-3.36 3.24-4.19 3.9-5.19 5.13-1.03 1.26.63 3.23 2.19 2.1 1.2-.87 1.67-1.43 5.1-4.61.71-.66 1.59-1.4 1.64-2.45.03-.65-.4-1.48-1.16-1.48zM477.57 1487.17c-44.52-52.96-113.57-74.23-176.96-58.88-4.58 1.11-9.26 2.22-13.57 4.14-.94.42-.57 2.01.5 1.8 12.88-2.55 23.96-7.06 48.72-7.59 53.47-1.16 101.4 20.76 134.93 58.16 14.79 16.5 22.08 29.81 31.1 48 .73 1.47 2.9.53 2.34-1.01-5.92-16.29-15.95-31.4-27.06-44.61zM514.36 1587.93c-.08 3.33.75 6.57 1.39 9.82.64 3.26 1.27 6.51 2 9.75.47 2.09 3.69 1.71 3.35-.47-.52-3.28-1.13-6.53-1.74-9.79-.61-3.26-1.01-6.64-2.32-9.71-.51-1.2-2.64-1.05-2.67.39z"></path><path fill="#ff6a00" d="M429.19,1566.3c-11.06-7.1-24.31-9.77-37.15-6.89-5.24,1.18-10.38,3.85-15.52,6.75-9.92-12.4-19.84-25.39-30.45-37.59,9.48-2.82,15.72.6,23.32-1.78,2.73-.85,5.68-3.76,4.54-6.99-6.48-18.35-29.48-18.48-47-11.27-4.7-4.39-9.57-8.53-14.67-12.32-6.11-4.54-13.41,3.26-10.45,9.46,2.37,4.97,5.07,9.82,7.98,14.59-18.06,21.27-15.64,55.12,6.13,72.88,10.55,8.61,24.13,12.84,37.69,11.74,6.76-.55,12.75-3.13,18.51-6.21,31.4,38.37,28.72,34.94,32.01,39.35-9.71,3.59-21.13,3.23-31.83,5.05-15.42,2.63-15.88,25.17-1.67,29.89,19.57,6.49,38.9.91,53.92-10.73,3.39,2.75,7.06,4.96,11.17,6.29,6.67,2.16,12.02-3.64,11.23-10.04-.64-5.17-2.73-9.94-5.57-14.44,16.45-24.91,17.77-58.51-12.19-77.74ZM327.3,1545.2c8.39,10.68,17.41,21,26.16,31.17-18.13,2.77-31.89-14.76-26.16-31.17ZM400.42,1586.24c19.58-2.26,27.04,19.3,21.34,34.63l-27.62-33.26c2.04-.64,4.12-1.11,6.28-1.36Z"></path><ellipse cx="1771.81" cy="1597" fill="#ff6a00" rx="173.14" ry="143.88" transform="rotate(-67.29 1771.929 1597.01)"></ellipse><ellipse cx="1742.87" cy="1584.89" fill="#fa0" rx="173.14" ry="143.88" transform="rotate(-67.29 1742.988 1584.904)"></ellipse><path fill="#ff6a00" d="M1772.14 1709.92c17.48-12.74 34.14-26.55 47.08-44.04 13.03-17.62 22.05-38.21 27.24-59.47 1.02-4.18 7.41-3.6 6.8.87-6.05 44.28-35.79 90.63-77.68 108.69-3.64 1.57-6.68-3.69-3.44-6.05zM1703.23 1730.82c-.31-1.16-.19-2.71.71-3.63 1.43-1.46.9-1.15 4.85-2.96 1.51-.69 1.85-.69 12.86-3.47 2.23-.56 5.6 1.49 5.87 4.49.25 2.75-.95 3.8-2.03 4.86-.99.74-.47.5-10.25 2.97-3.12.79-2.73.7-5.84.9-2.95.2-5.4-.31-6.16-3.17zM1618.04 1598.75c1.35-34.65 22.41-75.06 43.47-101.39 7.36-9.19 16.45-20.29 26.64-26.39 3.48-2.08 7.97 1.72 5.21 5.31-3.65 4.76-8.46 8.68-12.5 13.13-35.29 38.87-42.86 65.62-56.42 111.05-1.15 3.86-6.54 1.78-6.4-1.72zM1842.78 1527.58l-5.71-20.05c-.48-1.71-.54-3.3.59-4.82.83-1.1 2.34-2.17 3.8-1.85 3.17.71 3.84 1.95 4.63 4.38 7.54 23.24 7.68 21.53 5.4 25.25-.96 1.56-3.49 2.03-5.07 1.32-1.94-.87-3.07-2.22-3.64-4.23z"></path><path fill="#1b136a" d="M1903.6 1575.11c-2.9-1.25-5.93-2.55-8.49-4.39-2.18-1.57-.61-5.34 2.05-4.89 3.11.53 6.17 1.78 9.09 2.96 2.96 1.2 6.12 2.26 8.81 3.99 1.15.74 1.56 2.63 1 3.83-.57 1.21-2 2.3-3.42 1.98-3.12-.7-6.09-2.21-9.02-3.47zM1895.59 1601.64c-.93-.4-1.81-.96-2.69-1.45-3.12-1.73-1.29-5.79 2.02-4.82 3.31.98 7.47 2.52 10.16 4.25.52.33.95.9 1.37 1.36 1.07 1.16.12 3.43-1.46 3.48-1.97.06-1.41.11-3.25-.37-1.55-.41-2.92-1.05-6.15-2.46zM1863.68 1678.12c-.66-.4-1.51-1.34-2.31-2.07-.81-.74-1.1-1.83-.52-2.82.75-1.28 2.1-1.22 3.48-.67 2.05.64.56-.16 4.79 2.21 1.94 1.09 2.34 1.35 4.17 2.79 2.68 2.1 1.68 4.82-.65 4.76-2.63-.07-6.42-2.64-8.97-4.2zM1802.08 1736.42c-3.16-1.73-1.39-5.98 2.07-4.94 2.9.87 7.45 2.41 9.27 4.82.94 1.25.16 3.12-1.39 3.33-3.04.4-7.25-1.74-9.94-3.22zM1890.65 1505.73c-3.34-1.92-8.41-4.1-6.47-7.42.77-1.32 2.2-1.65 3.6-1.22.51.16 1.05.27 1.54.49.51.22 6.37 3.29 8.39 5.14.78.72.93 1.11 1.36 1.94.66 1.27-.43 3.03-1.81 3.13-.73.06-1.8.23-3.94-.73-.92-.41-1.81-.83-2.68-1.33z"></path><path fill="#1b136a" d="M1873.42 1453.77c8.96 8.34 19.61 23.25 26.26 34.86 31.58 55.07 31.3 119.16 4.35 171.88-1.98 3.88-3.81 8.13-7.05 11.1-.31.29-.75.22-1.08-.01-1.08-.21-.83-1.16-.67-1.93.05-.34.36-.72.74-.78.03 0 .06 0 .09 0 1.28-3.5 4.45-7.8 9.43-19.43 24.34-56.85 18.04-122.97-19.44-174.67-4.73-6.53-10.1-12.42-15.3-18.56-1.34-1.58 1.15-3.86 2.66-2.45zM1741.74 1764.44c8.46-.96 12.7.79 29.96-1.74 29.73-4.36 57.99-17.99 80.19-38.25 12.72-11.6 16.69-18.73 22.35-25.39.8-.94 2.45.04 1.86 1.19-5.03 9.79-21.76 29.19-43.39 42.95-22.66 14.42-48.51 22.63-73.89 23.97-5.59.3-11.69.71-17.16-.64-1.13-.28-1.16-1.95.07-2.09zM1713.04 1756.23c1.15-.29 1.85.1 2.8.65 4 2.33 4.95 2.78 6.2 3.73 1.29.98.15 3.26-1.62 2.54-1.36-.55-1.94-.99-6-3.24-.84-.47-1.86-.98-2.16-1.98-.18-.62.04-1.52.77-1.7zM1611.08 1515.08c30.5-61.47 92.06-98.16 156.76-98.22 4.67 0 9.45-.03 14.05.81 1.01.18 1.02 1.8-.06 1.85-13.01.56-24.74-1.19-48.74 4.1-51.81 11.41-92.86 43.77-116.41 87.67-10.39 19.37-14.3 33.9-18.73 53.55-.36 1.59-2.67 1.19-2.49-.43 1.89-17.08 8.02-34 15.62-49.33zM1599.23 1620.81c.86 3.19.82 6.51.97 9.79.15 3.29.31 6.58.36 9.87.03 2.13-3.15 2.51-3.33.33-.27-3.28-.44-6.56-.61-9.84-.18-3.28-.59-6.63-.04-9.9.21-1.28 2.3-1.63 2.66-.25z"></path><path fill="#ff6a00" d="M1774.94,1626.61c2.16-12.85-.57-25.98-8.21-36.56-3.12-4.32-7.56-7.96-12.21-11.52,7.44-13.88,15.41-28,22.41-42.44,6.27,7.55,5.58,14.57,10.71,20.57,1.84,2.15,5.64,3.72,8.14,1.42,14.21-13.07,5.36-34.1-8.06-47.26,2.17-6,4.05-12.06,5.51-18.19,1.75-7.35-8.2-10.96-12.7-5.84-3.6,4.1-6.97,8.46-10.19,12.97-26.44-8.17-56.37,7.24-64.07,34.02-3.73,12.98-2.3,27.02,3.99,38.95,3.14,5.95,7.83,10.41,12.89,14.46-22.74,43.6-20.66,39.82-23.4,44.54-7.06-7.46-11.18-18.01-17.02-27.06-8.41-13.04-29.15-4.67-27.91,10.14,1.71,20.38,14.34,35.83,30.82,44.99-1.19,4.16-1.77,8.38-1.38,12.64.64,6.93,8.01,9.54,13.54,6.32,4.46-2.6,8-6.36,11-10.71,29.14,5.29,60.29-6.62,66.14-41.44ZM1754.45,1525.46c-6.47,11.81-12.36,24.07-18.22,36.02-9.6-15.45,1.02-34.84,18.22-36.02ZM1745.54,1608.15c9.7,16.98-7.06,32.19-23.25,32.97l19.56-38.16c1.37,1.61,2.62,3.32,3.69,5.2Z"></path><path fill="#e5e5ff" d="M635 541.5c-.15-3.35-5.24-3.39-5.24 0 .03 67.56 19.01 889.97 19.72 911.53.12 3.82 6 3.85 5.96 0-.02-1.36-17.48-843.66-20.44-911.53zM667.91 1530.74c-.33-3.54-5.74-3.68-5.63 0 .41 13.39 1.05 26.78 2.74 40.07.41 3.2 5.17 3.43 5.17 0 .02-13.39-1.02-26.74-2.28-40.07zM1525.71 1722.4c-.87-16.68-1.79-33.36-2.68-50.03-.89-16.65-1.22-33.42-2.66-50.03-.42-4.83-7.77-5-7.66 0 .59 27.77 3.06 55.64 4.57 83.39 1.17 21.52 5.66 48.19-6.79 67.41-12.26 18.93-37.64 20.05-57.89 20.81-129.34 4.84-143.34 5.05-177.2 7.02-4.01.23-4.08 6.35 0 6.29 58.73-.86 117.47-3.74 176.16-5.86 20.86-.75 45.32-1.83 60.55-18.25 15.05-16.23 14.68-40.06 13.6-60.74zM1125.27 1801.2c-1.55-2.78-4.75-2.57-15.74-3.37-11.33-.83-13-1.35-14.75.21-2.53.1-3.3 4.45-.37 4.81 1.58 1.89 3.82 1.64 14.58 2.69 10.03.98 13.87 1.87 15.78-.46.93-1.14 1.25-2.55.5-3.89z"></path><path fill="#1b136a" d="M925.92 278.02c-73.32-.22-146.65-.56-219.97-.43-30.51.05-63.91-2.76-92.92 8.65-26.2 10.31-43.2 33.03-50.11 59.88-9.15 35.54-.23 73.86 10.23 108.13 1.37 4.48 8.08 2.63 7.01-1.93-7.35-31.32-17.1-63.03-11.32-95.52 4.84-27.16 19.84-52.23 46.35-62.73 27.94-11.07 60.33-7.81 89.72-7.57l221.02 1.02c6.11.02 6.12-9.48 0-9.5zM1035.34 275.69c-3.3-1.72-6.03-1.42-20.95-1.28-6.95.07-13.89 0-20.82.69-4.5.44-4.51 6.56 0 7.01 7.23.71 29.22.79 31.03.78 3.59 0 7.47.33 10.74-1.37 2.2-1.15 2.2-4.68 0-5.82zM1504.65 472.15c-31.52 7.62-69.81 30.34-95.64 49.95-125.36 95.18-184.05 251.32-318.68 332.09-3.07 1.84-.32 6.56 2.81 4.81 147.04-82.56 209.93-270.26 356.55-354.57 18.22-10.48 37.29-17.88 56.87-25.33 4.26-1.62 2.68-8.05-1.91-6.95zM1582.06 433.33c-3.23.31-3.82.68-8.28 2.2l-22.63 7.74c-3.92 1.34-2.27 7.55 1.72 6.25 28.7-9.32 28.24-9 30.73-10.51 2.4-1.46 1.62-5.98-1.54-5.67zM1610.5 322.25c-17.33-10.45-35.51-19.34-53.5-28.58-74.48-38.28-145.46-76.6-218-97.49-3.38-.97-4.76 4.17-1.44 5.24 104.09 33.72 216.37 101.96 270.39 125.19 2.9 1.25 5.4-2.63 2.54-4.35zM1684.23 374.33c-2.6-2.52-1.82-1.79-33.09-23.14-1.45-.99-3.6-.27-4.44 1.16-.94 1.61-.28 3.43 1.16 4.43 30.43 21.17 29.72 20.87 32.72 22.27 2.94 1.38 6.26-2.2 3.65-4.73zM1859.66 750.35c-3.55-7.35-4.31-7.12-32.23-46.26-57.35-80.31-115.7-162.33-136.34-190.35-2.28-3.1-7.51-.2-5.26 3.07 42.45 61.57 79.43 112.27 150.01 211.29 6.1 8.56 11.72 18.39 19.2 25.81 2.47 2.45 6.05-.64 4.63-3.57zM1525.13 824.32c-17.99-52.5-63.64-90.47-109.37-99.1-3.39-.64-4.87 4.34-1.44 5.24 47.86 12.55 83.41 45.73 100.63 86.08 6.26 14.66 8.47 29.48 11.18 45.03.6 3.43 5.73 2.43 5.85-.79.45-12.2-2.92-25-6.85-36.46zM1146.36 558.25c-33.02 23.68-53.99 66.57-52.07 107.29.18 3.78 5.76 3.81 5.89 0 1.37-40.03 15.75-74.15 49.12-103.49 2.04-1.79-.69-5.42-2.94-3.81zM1281.01 517.7c-4.69-.85-7.53-.58-28.25-.42-3.83.03-3.84 5.93 0 5.96 21.84.16 23.73.39 28.25-.42 2.53-.46 2.53-4.66 0-5.12zM791.2 977.3c-.04-3.68-5.56-3.66-5.7 0-1.64 42.22-6.72 435.26-6.72 435.72.08 4.61 6.94 4.58 7.14 0 .11-2.45 5.78-391.5 5.28-435.72zM878.39 1528.69c-8.02-4.4-17.27-7.03-29.02-18.17-8.3-7.86-15.06-17.62-19.35-28.23-1.39-3.43-6.97-2.07-5.68 1.57 6.4 18.05 18.83 32.8 34.79 42.63 5.16 3.18 11.08 6.31 17.15 7.23 2.86.43 5.08-3.4 2.12-5.03zM1626.02 1182.89c-3.79-2.7-10.37-2.79-14.88-2.8-40.1-.09-62.16 41.8-45.45 73.52 1.68 3.18 6.19.39 4.75-2.78-7.28-16.05-5.03-36.33 7.01-49.52 10.47-11.47 26.77-16.31 40.54-14.07 2.17.35 4.34 1.16 6.55 1.07 3.01-.13 3.8-3.78 1.47-5.43zM1652.43 1259.22c-.77-1.2-1.97-1.55-3.33-1.35-2.35.35-15.19 6.74-18.03 8.27-1.32.71-1.79 2.43-1.23 3.76.53 1.26 2.15 2.3 3.55 1.74 2.7-1.06 16.12-6.68 18.57-8.85.94-.83 1.13-2.53.46-3.57zM1721.42 1027.38c-.51-18.37-1.1-36.73-1.73-55.09-.13-3.86-6.08-3.89-6.02 0 .28 18.37.6 36.73 1.01 55.09.4 18.32.05 36.85 1.86 55.09.36 3.64 5.58 3.76 5.76 0 .91-18.3-.37-36.79-.87-55.09zM1710.65 1365.38c-.56-4.28-5.81-3.15-5.63 0 .28 4.95 1.2 20.6 2.39 25.82.74 3.26 5.54 2.4 5.66-.77.19-5.08-1.85-20.73-2.42-25.06zM1424.48 1354.54c-4.03 1.1-6.98 3-18.68 9.59-1.72.97-2.44 3.46-1.35 5.15 1.12 1.74 3.31 2.39 5.15 1.35 11.34-6.38 14.73-8.04 17.85-11 2.24-2.12-.08-5.88-2.96-5.09zM1437.94 1381.58c-1.75-2.72-4.2-1.13-14.01 3.63-1.4.68-2.1 2.91-1.15 4.39.98 1.52 2.79 1.98 4.39 1.15 5.93-3.06 8.37-4.18 10.34-5.83.89-.75 1.05-2.38.43-3.33zM938.44 758.15c-8.88-3.97-20.33-4.41-29.93-5.67-28.44-3.75-56.95-3.62-82.75 9.56-28.22 14.42-48.5 48.38-34.93 79.64 1.27 2.94 6.3.84 5.21-2.19-11.1-30.87 9.35-61.07 37.44-73.28 41.99-18.26 92.12-1.24 103.31-1.95 2.91-.19 4.87-4.66 1.65-6.1zM975 760.33c-1.42-2.29-3.19-1.98-5.22-1.97l-10.02.06c-1.83.01-3.59 1.6-3.5 3.5.08 1.91 1.54 3.49 3.5 3.5l10.02.05c2.25.01 3.85.23 5.22-1.97.58-.93.58-2.24 0-3.17zM1217.61 353.73c-.02-1.92-1.67-3.76-3.67-3.67-2.01.09-3.64 1.61-3.67 3.67-.17 15.34-.59 18.82 1.15 21.5 1.22 1.88 3.81 1.88 5.03 0 1.67-2.58 1.33-5.11 1.15-21.5zM1240.57 357.71c-.22-1.5-2.37-3-4.23-2.4-1.8.58-2.73 1.96-2.4 4.23 1.48 10.37 1.65 12.89 2.84 15.7.5 1.18 2.28 1.77 3.44 1.4 3.6-1.17 2.29-5.32.35-18.93zM1672.15 783.93c-6.79.39-3.02-.02-18.38 2.08-1.69.23-2.75 2.48-2.26 3.99.59 1.82 2.19 2.55 3.99 2.26 9.69-1.53 10.65-1.57 17.35-3.18 2.83-.68 2.28-5.31-.7-5.14zM1678.17 796.57c-1.76-.29-1.12-.28-3.05-.01-3.86.52-2.73.32-11.37 2.07-1.97.4-3.28 2.84-2.68 4.71.68 2.09 2.6 3.1 4.71 2.68 3.49-.7 11.15-2.05 13.18-3.34 2.79-1.77 1.61-5.7-.8-6.1z"></path><path fill="#e5e5ff" d="M941.22 1668.1c-1.53-2.21-2.16-2.24-23.48-14-1.64-.9-3.97-.45-4.88 1.28-.89 1.68-.46 3.91 1.28 4.88 14.82 8.3 21.61 12.49 24.34 12.62 2.31.11 4.1-2.82 2.74-4.78zM925.58 1690.11c-2.22-1.75-4.05-2.22-21.27-8.63-1.66-.62-3.77.69-4.15 2.36-.44 1.92.58 3.48 2.36 4.15 17.35 6.54 18.49 7.16 20.93 7.27 2.78.13 3.93-3.72 2.13-5.14zM926.05 564.18c-3.68 3.63-.74.08-16.12 20.39-1.29 1.7-.33 4.61 1.46 5.56 2.12 1.12 4.2.37 5.56-1.46 14.64-19.7 12.07-15.94 14.46-20.36 1.92-3.57-2.61-6.83-5.35-4.13z"></path><path fill="#1b136a" d="M444.3 369.59c-26.73-28.38-33.52-34.75-181.41-184.19-2.91-2.94-7.44 1.59-4.54 4.54 140.44 142.76 151.95 155.05 181.73 183.86 2.76 2.67 6.84-1.42 4.21-4.21zM381.5 458.97c-14.48-7.54-17.65-8.61-97.5-45.24-4.65-2.13-8.71 4.79-4.03 6.9 32.89 14.83 65.5 30.97 99.08 44.15 3.35 1.31 5.61-4.16 2.45-5.81zM481.74 302.7c-8.91-19.71-19.83-38.58-30-57.66-2.22-4.16-8.57-.46-6.33 3.7 10.22 19.03 19.85 38.57 31.3 56.89 2.03 3.24 6.55.42 5.03-2.94zM412.35 1180.13c-54.23 35.08-107.72 71.34-161.51 107.08-2.58 1.72-.17 5.91 2.45 4.18 53.87-35.63 108.09-70.79 161.51-107.08 2.56-1.74.19-5.89-2.45-4.18zM402.02 1263.46c-9.55 8.78-18.53 18.22-27.71 27.38-2.54 2.53 1.4 6.48 3.94 3.94 9.16-9.18 18.61-18.16 27.38-27.71 2.23-2.42-1.19-5.84-3.61-3.61zM479.54 1296.75c-10.91 14.38-20.85 29.54-31.14 44.36-2.33 3.36 3.18 6.56 5.49 3.21 10.2-14.86 20.84-29.51 30.4-44.8 1.93-3.08-2.67-5.51-4.75-2.78zM1918.82 981.62c-7.96 3.62-.42-.3-110.3 62.42-3.88 2.21-.39 8.2 3.5 5.99 110.15-62.51 102.85-57.96 110-62.93 3.39-2.36.51-7.17-3.21-5.48zM1893.76 1102.65c-19.2.64-38.43 3.32-57.54 5.21-4.03.4-4.08 6.74 0 6.35 19.39-1.86 39.04-2.98 58.28-6.09 3.11-.5 2.36-5.57-.74-5.47zM1898.3 1192.45c-8.88-3.9-11.47-4.38-60.88-20.26-4.46-1.43-6.38 5.58-1.93 7.01 49.28 15.84 51.16 16.86 60.47 18.82 3.16.67 5.68-4.1 2.35-5.57z"></path></svg>